<?xml version="1.0" standalone="no"?>
<!DOCTYPE svg PUBLIC "-//W3C//DTD SVG 20010904//EN"
 "http://www.w3.org/TR/2001/REC-SVG-20010904/DTD/svg10.dtd">
<svg version="1.0" xmlns="http://www.w3.org/2000/svg"
 width="900.000000pt" height="636.000000pt" viewBox="0 0 900.000000 636.000000"
 preserveAspectRatio="xMidYMid meet">

<defs>
    <linearGradient id="background-gradient" x1="0" y1="0" x2="0" y2="1">
        <stop offset="0%" style="stop-color:#1a1919;" />
        <stop offset="100%" style="stop-color:#000000;" />
    </linearGradient>
    <filter id="neon-glow" x="-50%" y="-50%" width="200%" height="200%">
        <feGaussianBlur stdDeviation="2.5" result="coloredBlur"/>
        <feMerge>
            <feMergeNode in="coloredBlur"/>
            <feMergeNode in="SourceGraphic"/>
        </feMerge>
    </filter>
    <style>
        @keyframes neonPulse {
            0% { stroke-opacity: 0.6; }
            50% { stroke-opacity: 1; }
            100% { stroke-opacity: 0.6; }
        }
        .neon-path {
            <!-- Outline Colour -->
            stroke:rgb(254, 255, 254);
            stroke-width: 3;
            filter: url(#neon-glow);
            animation: neonPulse 2s infinite alternate;
        }
        .land {
            <!-- Land Colour -->
            fill:rgb(37, 37, 37);
        }
    </style>
</defs>

<rect width="100%" height="100%" class="land"  />

<g transform="translate(0.000000,636.000000) scale(0.100000,-0.100000)"
fill="none" stroke="none">



<path fill="url(#background-gradient)" class="neon-path" d="M0 3180 l0 -3180 4500 0 4500 0 0 3180 0 3180 -4500 0 -4500 0 0
-3180z m3580 2090 c109 -12 141 -20 167 -40 18 -14 43 -18 119 -19 53 -1 101
-4 105 -7 17 -10 -2 -24 -33 -24 -45 0 -148 -40 -148 -57 0 -8 5 -24 11 -35 9
-17 8 -24 -5 -33 -13 -10 -14 -18 -6 -40 11 -29 6 -45 -14 -45 -8 0 -24 -8
-36 -18 -20 -16 -21 -21 -10 -39 7 -11 10 -28 7 -37 -10 -25 -122 -72 -190
-81 -39 -4 -72 -16 -102 -36 -24 -16 -56 -29 -73 -29 -38 0 -82 -16 -82 -30 0
-6 -11 -27 -24 -48 -12 -20 -27 -48 -31 -62 -10 -31 -22 -40 -59 -40 -29 0
-126 47 -126 61 0 4 -20 29 -44 55 -46 49 -62 93 -46 124 8 15 6 21 -10 30
-22 12 -27 49 -9 67 9 9 6 13 -12 18 -15 4 -31 21 -41 43 -10 20 -30 50 -44
66 l-27 29 -113 -7 -113 -7 -16 25 c-12 18 -26 26 -46 26 -22 0 -29 5 -29 19
0 15 10 21 42 26 23 4 49 11 58 16 8 4 23 10 33 13 22 7 13 26 -12 26 -9 0
-26 -7 -37 -15 -22 -17 -60 -20 -69 -5 -11 18 -44 11 -56 -12 -18 -34 -95
-108 -113 -108 -8 0 -18 5 -21 10 -7 11 -84 14 -110 4 -29 -11 4 -24 63 -24
43 0 52 -3 52 -17 0 -20 144 -103 177 -103 11 0 42 -9 68 -21 33 -15 49 -29
57 -50 10 -28 19 -32 98 -42 19 -3 39 -44 32 -69 -2 -11 -18 -25 -34 -30 -24
-9 -27 -13 -16 -25 10 -13 7 -20 -20 -44 -18 -16 -42 -29 -53 -29 -21 0 -122
51 -150 76 -20 18 -43 18 -59 -1 -18 -21 -5 -45 25 -45 40 0 108 -38 130 -73
23 -35 53 -47 69 -25 25 33 48 30 93 -14 24 -23 43 -50 43 -60 0 -11 16 -25
45 -38 61 -28 99 -79 92 -125 -4 -23 -2 -35 5 -35 23 0 58 -44 58 -72 0 -38
-18 -43 -101 -29 -74 14 -96 36 -65 67 35 34 -18 37 -72 3 -19 -12 -26 -11
-52 5 -20 11 -40 16 -56 12 -34 -9 -20 -26 22 -26 30 0 34 -3 34 -25 0 -20 5
-25 24 -25 14 0 27 4 31 9 8 14 65 -21 65 -39 0 -24 -13 -36 -51 -49 -20 -6
-45 -21 -54 -31 -22 -24 -51 -26 -59 -5 -4 11 -13 14 -33 9 -34 -8 -57 -34
-43 -48 19 -19 10 -35 -26 -42 -19 -3 -51 -21 -70 -39 -30 -28 -34 -39 -34
-81 0 -47 -26 -93 -54 -94 -16 -1 -50 -31 -70 -63 -18 -26 -18 -29 -1 -64 23
-48 25 -117 4 -138 -14 -15 -18 -14 -37 2 -12 10 -31 42 -41 72 -20 57 -28 65
-78 76 -24 5 -39 1 -61 -15 -27 -20 -34 -21 -66 -10 -72 23 -123 -34 -133
-151 -10 -108 51 -188 117 -154 19 10 30 23 30 37 0 32 29 58 65 58 54 0 61
-20 37 -97 -12 -37 -20 -69 -17 -71 2 -3 24 -5 47 -6 54 -1 71 -28 62 -98 -11
-81 34 -144 73 -105 13 13 19 13 43 1 33 -17 60 -9 60 16 0 34 99 86 115 60 4
-6 15 -8 25 -5 12 4 27 -2 40 -15 34 -34 68 -43 103 -25 46 23 53 19 87 -40
41 -71 75 -95 135 -95 38 0 52 -5 71 -26 13 -14 24 -31 24 -38 0 -8 7 -27 15
-42 8 -16 15 -38 15 -49 0 -14 12 -26 40 -38 22 -9 46 -17 53 -17 8 0 19 -11
25 -25 10 -22 18 -25 62 -25 43 0 55 -5 89 -36 22 -19 48 -34 57 -32 21 4 44
-35 44 -75 0 -40 -21 -84 -68 -143 -39 -49 -40 -54 -39 -120 0 -47 -5 -78 -16
-99 -9 -16 -17 -39 -17 -51 0 -29 -38 -61 -93 -80 -65 -22 -107 -66 -107 -111
0 -41 -72 -168 -99 -176 -10 -2 -25 -17 -33 -33 -11 -24 -20 -29 -46 -28 -31
2 -32 0 -32 -35 0 -48 -14 -64 -73 -85 -33 -12 -51 -26 -58 -42 -5 -14 -17
-27 -26 -31 -22 -7 -52 -43 -53 -61 0 -8 -7 -30 -16 -49 -13 -25 -14 -37 -5
-46 19 -19 12 -50 -19 -91 -17 -22 -30 -50 -30 -64 0 -32 51 -82 84 -82 16 0
26 -6 26 -15 0 -11 -14 -15 -57 -17 -96 -3 -111 -1 -140 22 -51 39 -117 190
-84 190 5 0 11 25 13 56 3 39 11 61 22 70 15 10 16 16 6 34 -10 18 -9 30 5 59
13 29 14 43 5 65 -9 23 -7 34 12 64 19 31 22 50 21 127 0 62 4 99 14 119 11
21 16 67 17 155 2 69 6 136 11 149 7 20 2 25 -46 46 -37 17 -62 36 -79 63 -14
21 -28 41 -33 44 -4 3 -10 30 -14 60 -5 50 -46 128 -78 151 -5 4 -10 47 -9 96
0 93 16 134 57 148 10 3 24 19 31 35 15 37 -1 130 -27 156 -17 17 -18 17 -23
-5 -4 -15 -14 -22 -29 -22 -32 0 -121 72 -129 105 -12 48 -35 73 -74 80 -20 3
-54 20 -74 36 -24 19 -48 29 -71 29 -34 0 -123 26 -142 42 -5 5 -29 22 -52 38
-32 22 -45 40 -54 72 -17 64 -45 121 -74 148 -14 13 -25 29 -25 36 0 7 -11 26
-24 41 -22 25 -25 26 -31 11 -5 -12 3 -31 23 -56 38 -48 51 -92 28 -92 -19 0
-66 46 -66 65 0 6 -13 27 -30 45 -16 18 -30 41 -30 50 0 19 -59 113 -139 220
-88 119 -85 111 -91 260 -5 125 -6 135 -25 138 -24 5 -65 41 -65 58 0 7 -9 29
-21 48 -20 35 -39 40 -39 10 0 -28 -18 -13 -62 51 -78 113 -163 165 -270 165
-96 0 -134 -14 -164 -61 -29 -47 -52 -59 -69 -36 -16 23 -18 22 -69 -17 -24
-18 -61 -37 -82 -41 -21 -4 -67 -20 -101 -36 -71 -33 -76 -34 -92 -16 -8 11
-7 18 7 30 17 16 130 57 155 57 21 0 67 39 67 56 0 8 -15 21 -34 29 -19 8 -37
19 -41 25 -3 5 -19 10 -34 10 -56 0 -68 50 -23 93 16 15 39 27 54 27 15 0 30
5 33 10 10 17 -24 23 -55 10 -38 -16 -90 2 -90 31 0 17 31 33 56 28 43 -8 37
24 -7 40 -28 10 -40 31 -18 31 7 0 33 13 58 29 26 15 63 31 81 33 19 3 50 12
68 19 27 11 37 11 65 0 17 -8 73 -17 123 -21 50 -5 108 -13 130 -19 21 -6 58
-11 82 -11 24 0 56 -7 71 -15 24 -12 31 -12 40 -1 6 8 42 17 78 21 37 4 78 11
91 16 15 6 29 6 36 0 22 -18 266 -36 266 -20 0 13 -61 85 -69 82 -64 -26 -93
-32 -116 -23 -29 11 -32 35 -9 68 12 18 25 22 69 22 59 0 140 -23 167 -47 14
-12 23 -13 47 -5 19 7 33 7 36 1 4 -5 19 -9 34 -9 15 0 32 -5 39 -12 9 -9 12
-7 12 10 0 28 44 52 62 34 7 -7 12 -24 13 -39 0 -26 20 -43 68 -57 23 -7 23
-52 0 -61 -16 -6 -15 -8 6 -16 20 -8 30 -5 56 21 17 16 38 30 47 30 24 0 31
16 18 41 -9 17 -18 20 -41 15 -52 -10 -109 28 -82 55 14 14 90 14 107 0 10 -8
16 -9 21 -2 9 16 -1 85 -19 119 -22 44 -21 50 24 93 39 38 72 49 85 29 11 -18
45 -11 45 9 0 26 18 31 125 31 60 0 105 5 128 15 40 16 113 20 121 6 10 -16
71 -19 105 -5 43 18 60 18 82 -2 16 -14 23 -15 47 -5 25 11 36 9 75 -9 35 -17
50 -19 65 -11 13 7 71 9 152 7 114 -2 134 0 154 15 20 16 44 18 166 18 79 0
145 3 148 6 7 7 51 5 142 -5z m2150 -92 c0 -16 -9 -18 -75 -18 -69 0 -75 2
-75 20 0 11 8 23 18 26 9 3 30 11 47 18 26 12 33 11 57 -7 16 -12 28 -29 28
-39z m887 2 c22 -25 34 -30 58 -26 49 8 100 -7 100 -30 0 -10 10 -30 22 -43
20 -21 30 -23 102 -22 l81 2 0 -29 c0 -27 -3 -28 -67 -39 -71 -13 -111 -37
-79 -49 10 -4 25 1 37 11 15 14 40 19 114 22 80 3 101 0 132 -17 44 -24 92
-26 119 -5 42 32 134 2 134 -45 0 -27 23 -31 56 -9 25 16 40 18 97 13 59 -6
70 -4 86 12 39 43 31 74 -21 74 -18 0 -28 5 -28 15 0 23 34 35 99 35 53 0 61
-2 61 -19 0 -10 -7 -24 -15 -31 -9 -7 -15 -23 -13 -34 3 -19 12 -22 78 -26 52
-4 92 -14 131 -32 44 -21 69 -27 117 -25 46 1 66 -3 80 -16 16 -15 37 -18 118
-17 55 1 113 1 129 1 17 -1 72 -1 123 -1 89 0 96 -2 166 -40 47 -25 87 -40
109 -40 40 0 51 -11 42 -40 -12 -39 -39 -42 -107 -14 l-64 26 -36 -24 c-41
-26 -45 -35 -22 -53 15 -10 15 -13 0 -28 -9 -9 -38 -19 -64 -22 -26 -4 -65
-16 -86 -27 -26 -13 -50 -18 -69 -14 -16 3 -52 -1 -80 -10 -60 -19 -91 -48
-78 -72 15 -28 -10 -84 -48 -109 -19 -13 -44 -40 -55 -60 -12 -20 -26 -38 -32
-40 -27 -9 -54 120 -34 168 8 18 36 46 71 70 33 22 59 43 59 47 0 11 -59 42
-79 42 -10 0 -38 -20 -63 -45 -50 -49 -98 -61 -117 -28 -8 16 -11 16 -48 -1
-28 -12 -50 -16 -77 -11 -52 10 -151 -28 -193 -74 -18 -20 -32 -41 -33 -48 0
-19 32 -33 53 -21 13 7 25 5 44 -7 23 -15 26 -15 43 0 17 16 19 15 29 -4 15
-27 16 -110 3 -191 -10 -60 -10 -66 8 -79 26 -17 27 -69 3 -77 -41 -12 -44
-19 -47 -96 -3 -46 -10 -85 -19 -98 -18 -26 -75 -55 -124 -65 -43 -8 -93 -40
-93 -60 0 -18 -30 -28 -46 -14 -21 18 -17 63 9 87 12 11 45 28 72 37 28 10 54
24 58 31 4 8 17 14 28 14 30 0 59 56 59 116 0 34 5 56 15 64 8 7 15 22 15 34
0 12 7 31 15 42 20 26 21 184 1 184 -14 0 -26 -29 -26 -68 0 -13 -26 -61 -57
-107 -58 -84 -58 -84 -102 -85 -39 0 -48 -5 -87 -47 -24 -27 -44 -56 -44 -65
0 -9 11 -34 25 -54 31 -45 31 -48 3 -75 -44 -41 -88 -45 -88 -8 0 11 6 28 13
40 10 18 9 23 -15 44 -16 13 -28 33 -28 45 0 21 -14 27 -25 10 -3 -5 -17 -10
-31 -10 -17 0 -24 5 -24 20 0 25 -11 25 -44 -1 -40 -32 -34 -49 18 -49 25 0
48 -5 51 -10 4 -6 -9 -26 -29 -44 -20 -18 -36 -36 -36 -39 0 -4 14 -26 30 -49
17 -22 30 -50 30 -60 0 -11 4 -27 9 -36 22 -42 -92 -201 -156 -217 -15 -3 -42
-20 -60 -36 -19 -16 -38 -29 -42 -29 -5 0 -13 -17 -18 -37 -7 -31 -14 -39 -36
-41 -23 -3 -27 0 -27 21 0 14 7 30 15 37 22 18 18 30 -9 30 -27 0 -56 -33 -56
-62 0 -17 28 -56 63 -87 21 -19 23 -91 3 -129 -8 -15 -32 -44 -54 -65 l-39
-38 -21 34 c-11 19 -23 44 -26 55 -9 26 -42 38 -61 22 -32 -26 -6 -130 40
-164 14 -10 25 -23 25 -28 0 -6 6 -24 14 -41 12 -28 25 -81 27 -112 0 -5 -3
-20 -6 -32 -6 -19 -2 -25 21 -33 15 -6 32 -17 38 -25 6 -7 20 -15 30 -17 34
-5 23 -23 -16 -26 -30 -3 -38 -7 -38 -23 0 -11 8 -22 18 -26 9 -3 27 -15 39
-26 19 -17 26 -18 52 -7 16 6 38 9 48 6 27 -10 88 -64 80 -72 -13 -13 -149 -3
-192 14 -49 20 -105 67 -139 117 -20 30 -26 32 -36 20 -11 -13 -16 -12 -37 11
-20 22 -23 33 -18 64 5 32 3 38 -14 43 -15 3 -19 13 -19 36 1 43 -17 61 -36
35 -14 -18 -15 -18 -21 -1 -8 18 -1 53 14 76 12 19 51 8 85 -24 33 -31 53 -33
32 -3 -9 12 -16 34 -16 49 0 14 -8 37 -19 50 -12 16 -20 46 -23 93 -4 64 -3
69 19 79 13 5 23 14 23 19 0 4 7 8 15 8 8 0 15 7 15 15 0 8 -7 15 -15 15 -8 0
-15 -7 -15 -15 0 -29 -40 -17 -51 15 -11 30 -32 39 -44 20 -12 -19 -47 10 -43
35 3 12 -3 38 -13 56 -10 19 -23 46 -29 61 -6 14 -17 29 -24 31 -15 6 -96 -28
-96 -40 0 -11 -62 -77 -115 -122 -39 -34 -40 -36 -44 -112 -3 -66 0 -80 17
-97 26 -26 35 -57 28 -88 -5 -19 -13 -24 -36 -24 -24 0 -31 5 -36 28 -10 47
-13 52 -29 46 -22 -9 -53 22 -60 60 -4 17 -17 54 -30 81 -30 63 -54 148 -57
200 -2 32 -7 40 -23 41 -11 1 -26 2 -33 3 -7 0 -20 18 -29 38 -8 21 -26 48
-40 61 -23 21 -30 22 -104 16 -68 -6 -82 -4 -99 11 -11 10 -23 16 -26 12 -12
-12 7 -43 36 -60 18 -11 30 -26 30 -39 0 -46 -79 -146 -140 -178 -19 -10 -48
-32 -64 -49 -17 -17 -35 -31 -42 -31 -6 0 -25 -7 -40 -15 -16 -8 -46 -15 -66
-15 -34 0 -38 -3 -38 -26 0 -26 1 -27 58 -21 32 2 68 11 79 17 26 16 57 6 49
-16 -3 -9 -6 -28 -6 -44 0 -16 -7 -35 -15 -43 -7 -8 -17 -26 -21 -41 -3 -14
-10 -26 -15 -26 -5 0 -9 -7 -9 -14 0 -8 -48 -79 -107 -158 l-108 -142 -3 -67
c-3 -52 0 -74 17 -107 15 -29 21 -60 21 -106 l0 -64 -52 -46 c-29 -25 -56 -46
-60 -46 -4 0 -14 -14 -23 -30 -12 -22 -13 -35 -5 -49 22 -42 12 -82 -29 -117
-32 -28 -39 -41 -45 -85 -8 -61 -24 -88 -91 -152 -50 -48 -50 -48 -102 -42
-32 4 -54 2 -58 -4 -9 -15 -78 -14 -100 2 -13 10 -16 22 -12 43 5 29 -8 66
-64 177 -20 39 -29 74 -29 105 0 32 -10 65 -28 103 -41 80 -44 97 -21 145 10
24 19 50 19 58 0 8 5 18 10 21 13 8 13 139 1 163 -5 9 -18 35 -29 57 -34 70
-57 110 -66 116 -5 4 -5 24 -2 45 4 22 9 58 12 82 l6 42 -40 0 c-32 0 -45 6
-61 26 -11 14 -21 30 -23 36 -7 19 -96 0 -103 -23 -8 -23 -52 -36 -68 -20 -14
14 -54 15 -62 1 -8 -13 -61 -13 -88 1 -29 15 -115 107 -123 131 -3 10 -19 32
-35 49 l-29 30 0 180 c0 148 3 188 17 217 23 52 80 120 114 137 24 13 28 20
23 40 -7 27 21 79 68 130 35 38 35 52 -1 60 -39 8 -49 38 -42 119 5 60 10 72
34 90 25 18 31 19 73 8 56 -15 74 -5 74 41 0 37 -25 67 -57 67 -29 0 -43 29
-19 42 15 9 15 11 -3 26 -20 17 -20 17 3 64 13 26 21 50 18 53 -14 14 -39 2
-49 -25 -12 -32 -47 -46 -88 -36 -45 11 -22 77 37 107 35 18 52 49 27 49 -6 0
-9 12 -7 28 2 20 8 27 25 27 12 0 31 8 43 18 28 24 60 22 60 -3 0 -11 6 -29
13 -40 10 -17 9 -22 -2 -29 -12 -7 -4 -21 37 -66 29 -31 55 -68 58 -81 8 -31
28 -26 32 7 6 42 39 68 78 62 37 -6 43 4 22 37 -10 16 -10 24 0 40 10 17 10
20 -6 20 -31 0 -64 45 -70 95 -4 38 -1 50 18 70 12 13 39 26 59 30 26 4 41 14
53 36 10 16 31 37 47 47 23 13 29 22 25 39 -7 28 25 50 86 59 25 3 81 15 125
25 103 24 171 24 211 0 17 -10 51 -22 75 -26 88 -14 154 -38 184 -66 39 -36
59 -38 53 -4 -3 14 1 30 8 36 11 9 20 4 43 -20 l29 -31 48 27 c41 22 63 27
139 29 111 3 105 2 105 12 0 4 -33 15 -72 25 -67 15 -98 35 -98 60 0 19 82 86
136 111 43 21 70 26 129 26 40 0 77 5 80 10 3 6 13 10 21 10 12 0 12 -4 -2
-25 -14 -21 -24 -25 -65 -25 -26 0 -51 -4 -54 -10 -3 -5 -23 -14 -44 -20 -20
-5 -48 -21 -61 -34 -20 -23 -21 -28 -11 -55 14 -31 35 -41 94 -41 23 0 62 -13
98 -31 43 -23 63 -29 71 -21 11 11 7 24 -13 53 -9 12 -8 22 6 42 21 32 89 57
107 39 17 -17 10 -131 -10 -164 -20 -35 -14 -41 27 -27 36 13 36 15 15 131 -6
34 -4 38 20 44 14 3 31 4 38 1 7 -2 21 0 31 5 13 7 26 5 42 -6 33 -22 45 -20
42 7 -2 18 3 23 32 25 25 3 46 16 77 48 43 43 67 54 79 34 14 -22 54 -9 94 32
23 22 40 46 38 52 -2 6 -20 12 -40 14 -48 4 -48 25 1 45 63 26 106 22 139 -13z
m-1712 -12 c12 -11 -20 -38 -47 -38 -10 0 -25 -11 -34 -25 -18 -27 -40 -31
-78 -14 -22 10 -29 8 -57 -16 -42 -34 -76 -29 -133 22 -80 72 -72 92 29 73 49
-9 72 -10 88 -2 12 6 36 13 52 15 48 5 169 -5 180 -15z m-3034 -11 c-13 -13
-26 -3 -16 12 3 6 11 8 17 5 6 -4 6 -10 -1 -17z m-74 -15 c26 -11 57 -22 68
-26 19 -7 19 -8 -5 -21 -31 -17 -84 -10 -123 17 -22 16 -25 23 -16 34 15 18
19 18 76 -4z m-175 -47 c14 -22 34 -38 50 -42 32 -6 53 -27 43 -43 -3 -5 -33
-10 -65 -10 -42 0 -63 -5 -76 -17 -15 -16 -18 -16 -46 0 -16 9 -37 17 -47 17
-9 0 -27 8 -40 17 -15 10 -42 16 -72 15 -59 -1 -68 10 -31 37 45 32 105 37
139 14 34 -24 53 -20 53 12 0 22 10 28 57 34 7 0 23 -15 35 -34z m280 -43 c5
-5 8 -18 6 -28 -4 -25 -60 -31 -78 -10 -8 11 -29 16 -61 16 -48 0 -58 7 -40
26 13 12 160 9 173 -4z m1831 -304 c26 -14 91 -12 116 4 10 6 30 8 44 4 52
-13 42 -86 -11 -86 -16 0 -37 -7 -48 -15 -26 -20 -40 -19 -101 7 -54 22 -69
43 -58 78 7 23 26 25 58 8z m517 -183 c0 -8 -7 -15 -15 -15 -8 0 -15 7 -15 15
0 8 7 15 15 15 8 0 15 -7 15 -15z m2970 -1070 c0 -15 -7 -26 -20 -30 -13 -4
-20 -15 -20 -31 0 -21 -4 -25 -22 -22 -38 5 -35 43 8 83 39 37 54 37 54 0z
m-4889 -42 c19 -9 40 -22 46 -29 7 -7 31 -20 53 -31 51 -24 55 -53 6 -53 -19
0 -41 6 -48 13 -35 32 -132 64 -143 47 -10 -17 -32 -11 -38 10 -4 16 3 25 31
40 46 24 51 24 93 3z m259 -118 c19 -20 21 -27 10 -40 -7 -8 -20 -15 -29 -15
-9 0 -22 -5 -28 -11 -18 -18 -33 0 -33 41 0 55 40 68 80 25z m-170 -45 c0 -25
-4 -30 -25 -30 -27 0 -41 20 -31 45 3 8 17 15 31 15 21 0 25 -5 25 -30z m4785
-4 c6 -19 6 -33 -3 -46 -20 -33 -14 -45 37 -78 48 -31 49 -33 44 -72 -4 -27 0
-47 11 -64 21 -32 20 -65 -1 -88 -21 -24 -31 -23 -76 7 -32 22 -36 29 -27 45
15 28 -4 91 -35 118 -22 20 -25 29 -25 94 0 60 4 75 22 95 26 28 40 25 53 -11z
m-62 -212 c9 -10 -15 -54 -30 -54 -13 0 -18 41 -6 53 8 9 28 9 36 1z m-43
-118 c5 -13 14 -27 19 -31 16 -9 13 -41 -5 -56 -12 -9 -14 -23 -10 -49 4 -25
0 -48 -13 -74 -11 -20 -22 -55 -26 -76 -4 -21 -13 -41 -22 -44 -23 -9 -96 5
-117 23 -34 29 -66 90 -66 126 0 34 1 35 40 35 22 0 40 4 40 8 0 4 23 33 50
64 28 31 50 61 50 67 0 10 28 30 43 31 4 0 12 -11 17 -24z m120 -166 c13 -7
21 -7 25 0 10 17 25 11 25 -10 0 -23 -40 -43 -76 -38 -13 2 -23 -1 -23 -7 0
-5 8 -10 18 -10 28 0 34 -10 20 -33 -10 -16 -9 -26 4 -55 18 -36 14 -67 -8
-67 -6 0 -17 10 -23 23 l-11 22 -7 -23 c-10 -33 -38 -24 -42 13 -1 17 -7 40
-13 51 -8 16 -7 29 5 52 9 17 16 38 16 46 0 17 37 46 58 46 7 0 22 -5 32 -10z
m140 -5 c10 -12 9 -22 -5 -51 -20 -42 -39 -40 -43 5 -6 57 19 81 48 46z m104
-55 c14 -5 26 -16 26 -23 0 -7 6 -22 14 -33 14 -19 15 -19 39 4 l24 23 64 -22
c44 -15 78 -35 109 -65 54 -52 93 -58 129 -21 18 20 20 28 11 51 -13 34 -13
36 2 36 18 0 58 -41 58 -59 -1 -29 -40 -64 -78 -70 -48 -8 -52 -32 -13 -67 17
-15 31 -36 31 -46 0 -35 -51 -18 -107 35 l-32 30 -21 -26 c-24 -30 -61 -35
-80 -13 -6 8 -24 16 -38 18 -25 3 -27 6 -24 41 4 42 -18 77 -48 77 -9 0 -21 5
-27 11 -6 6 -26 14 -45 18 -27 6 -32 11 -30 29 2 13 -3 25 -12 28 -9 3 -16 14
-16 23 0 32 19 38 64 21z m-69 -85 c0 -15 -74 -26 -96 -14 -11 5 -17 14 -13
20 7 13 109 7 109 -6z m123 -93 c2 -14 -2 -22 -11 -22 -19 0 -40 26 -32 40 11
18 40 6 43 -18z m-211 -49 c5 -11 -5 -27 -32 -50 -41 -35 -55 -35 -55 3 0 14
-6 24 -14 24 -19 0 -46 -27 -46 -46 0 -18 -24 -18 -39 0 -7 8 -23 17 -36 20
-27 7 -30 13 -15 36 7 11 36 16 112 21 57 3 107 6 111 7 4 1 11 -6 14 -15z
m159 -104 c4 -7 21 -9 45 -5 40 6 44 2 39 -34 -1 -8 -8 -22 -16 -31 -21 -23
-17 -48 9 -58 12 -5 33 -21 46 -35 14 -14 30 -26 37 -26 16 0 31 44 39 115 3
33 10 64 15 69 11 11 33 -41 26 -61 -3 -7 8 -25 24 -40 19 -16 30 -36 30 -52
0 -29 23 -67 57 -94 12 -10 25 -28 29 -40 4 -12 26 -48 50 -79 l44 -56 0 -97
c0 -76 -4 -104 -20 -135 -11 -21 -24 -41 -30 -45 -5 -3 -10 -19 -10 -35 0 -22
-10 -35 -42 -59 -36 -27 -50 -31 -102 -31 -82 0 -110 15 -130 70 -3 8 -10 22
-15 30 -5 8 -12 24 -16 34 -4 15 -8 17 -17 8 -21 -21 -50 -13 -82 24 -27 30
-39 36 -86 41 -48 4 -60 2 -92 -20 -20 -14 -64 -31 -97 -38 -34 -6 -68 -20
-77 -30 -22 -24 -42 -24 -74 1 -23 17 -24 21 -13 51 14 35 7 58 -53 171 -22
43 -23 50 -12 93 7 25 25 61 41 80 25 31 34 35 77 35 59 0 90 26 90 76 0 34
28 64 61 64 9 0 22 14 29 30 13 32 29 37 62 19 18 -10 24 -8 39 12 10 13 16
30 14 38 -12 33 62 70 81 40z m-2002 -41 c24 -34 20 -99 -10 -152 -18 -32 -28
-68 -32 -112 -4 -49 -9 -67 -23 -75 -11 -5 -19 -16 -19 -24 0 -11 -8 -13 -32
-8 -18 3 -39 10 -45 16 -17 13 -16 93 2 142 8 22 14 56 15 76 0 29 7 41 41 69
22 18 45 45 51 61 12 35 31 37 52 7z m2986 -672 c0 -20 67 -76 90 -76 30 0 31
-15 4 -41 -15 -13 -30 -34 -35 -46 -4 -12 -18 -23 -31 -25 -15 -2 -24 -11 -26
-26 -2 -13 -20 -35 -42 -50 -22 -15 -43 -39 -49 -54 -5 -14 -18 -29 -29 -32
-18 -6 -72 8 -72 18 0 19 18 39 45 50 18 8 47 34 64 59 18 24 44 50 57 56 21
9 23 14 14 30 -7 13 -7 22 0 26 15 9 12 51 -5 65 -8 7 -15 23 -15 36 0 15 6
24 15 24 8 0 15 -6 15 -14z m-628 -211 c-6 -67 -42 -74 -72 -15 -29 57 -27 62
28 58 l47 -3 -3 -40z"/>


<!-- 
<path class="neon-path" d="M2104 5099 c-20 -20 -23 -20 -52 -5 -17 9 -41 16 -52 16 -20 0 -20
-1 -5 -16 11 -11 14 -25 10 -44 -8 -34 10 -49 19 -16 7 28 50 43 72 25 12 -10
16 -8 21 9 3 11 14 22 26 24 11 2 22 9 25 16 6 20 -42 14 -64 -9z"/>



<path class="neon-path" d="M2072 4970 c-18 -17 -41 -30 -52 -30 -11 0 -20 -6 -20 -14 0 -14 92
-94 120 -104 8 -3 22 -11 31 -19 15 -13 19 -11 33 8 15 22 14 24 -37 48 -45
23 -52 30 -55 58 -4 42 31 63 76 44 23 -10 34 -9 58 4 16 8 36 16 44 16 21 2
-87 17 -130 18 -25 0 -44 -8 -68 -29z"/>



<path class="neon-path" d="M1940 4825 c0 -28 24 -34 34 -9 8 20 -1 34 -20 34 -8 0 -14 -10 -14
-25z"/>


<path class="neon-path" d="M2997 4843 c-12 -11 -8 -23 8 -23 8 0 15 7 15 15 0 16 -12 20 -23 8z"/>



<path class="neon-path" d="M1680 4830 c0 -5 6 -10 13 -10 6 0 22 -3 35 -6 16 -5 22 -2 22 10 0
12 -9 16 -35 16 -19 0 -35 -4 -35 -10z"/>



<path class="neon-path" d="M2299 4833 c-1 -5 0 -20 1 -34 1 -17 -9 -37 -25 -55 l-27 -29 31 -12
c35 -15 40 -32 11 -40 -13 -4 -20 -14 -20 -30 0 -30 -24 -26 -28 4 -2 16 -10
21 -35 19 -28 -1 -32 3 -35 26 l-3 28 -41 -32 c-22 -18 -58 -40 -80 -48 -66
-24 -98 -110 -42 -110 8 0 19 -11 24 -25 8 -22 16 -25 55 -25 33 0 50 -5 62
-20 12 -13 30 -20 54 -20 39 0 62 -19 74 -60 10 -34 34 -60 56 -60 26 0 33 19
15 39 -26 28 -20 60 12 67 56 14 67 42 30 81 -18 19 -20 26 -10 48 10 21 9 27
-3 31 -18 7 -20 35 -3 52 9 9 9 20 -1 47 -15 43 -9 55 31 55 34 0 101 37 92
51 -9 15 -41 10 -48 -7 -3 -9 -15 -14 -28 -12 -17 2 -23 10 -23 30 0 34 -11
44 -30 28 -13 -10 -19 -10 -33 4 -20 17 -31 20 -33 9z"/>



<path class="neon-path" d="M1495 4810 c-8 -13 20 -24 42 -16 15 6 15 8 3 16 -20 13 -37 12 -45
0z"/>



<path class="neon-path" d="M2656 4721 c-3 -5 1 -11 9 -15 15 -6 29 7 18 18 -9 9 -21 8 -27 -3z"/>



<path class="neon-path" d="M1506 3662 c6 -4 13 -15 17 -25 4 -10 12 -15 18 -12 12 8 -17 45 -35
45 -8 0 -8 -2 0 -8z"/>



<path class="neon-path" d="M4739 4661 c-63 -59 -63 -60 -45 -80 l19 -21 34 36 c18 20 33 40 33
45 0 5 14 21 30 36 34 30 38 43 11 43 -10 0 -47 -27 -82 -59z"/>



<path class="neon-path" d="M8171 4614 c-13 -14 -21 -27 -18 -31 8 -7 57 24 57 37 0 20 -17 17
-39 -6z"/>



<path class="neon-path" d="M4700 4512 c-14 -20 -43 -53 -64 -74 l-39 -38 57 0 c71 0 92 11 101
52 8 36 47 78 71 78 8 0 13 4 9 9 -3 5 -29 10 -58 9 -48 0 -54 -2 -77 -36z"/>



<path class="neon-path" d="M4496 4513 c-11 -11 -6 -23 9 -23 8 0 15 4 15 9 0 13 -16 22 -24 14z"/>



<path class="neon-path" d="M4192 4272 c-10 -7 -8 -11 10 -15 35 -10 68 -8 68 3 0 6 -6 10 -12
10 -7 0 -22 3 -33 5 -11 3 -26 1 -33 -3z"/>



<path class="neon-path" d="M5430 3614 c0 -9 13 -33 29 -53 15 -20 31 -46 35 -58 9 -29 37 -29
64 0 28 30 28 34 -6 42 -16 3 -46 24 -67 45 -42 43 -55 49 -55 24z"/>



<path class="neon-path" d="M5094 3520 c7 -43 20 -71 47 -105 9 -11 20 -31 23 -45 6 -22 38 -99
69 -167 5 -12 16 -24 25 -28 12 -4 13 1 7 31 -3 20 -10 44 -15 53 -5 9 -19 37
-31 64 -12 26 -26 47 -31 47 -4 0 -8 13 -8 29 0 15 -8 39 -18 52 -11 13 -27
43 -37 67 -24 53 -40 55 -31 2z"/> -->


</g>
</svg>
